<svg xmlns="http://www.w3.org/2000/svg" width="640" height="640" viewBox="0 0 640 640"><circle cx="602.5" cy="171" r="1" fill="rgba(20,30,65,.10)"/><circle cx="304.3" cy="536.5" r="0.6" fill="rgba(20,30,65,.10)"/><circle cx="56.6" cy="156.8" r="1" fill="rgba(20,30,65,.10)"/><circle cx="465.2" cy="331.2" r="1" fill="rgba(0,80,70,.14)"/><circle cx="633.2" cy="278" r="0.6" fill="rgba(20,30,65,.07)"/><circle cx="95.7" cy="337.7" r="1" fill="rgba(20,30,65,.15)"/><circle cx="505.4" cy="310.1" r="0.6" fill="rgba(20,30,65,.10)"/><circle cx="289.6" cy="278.1" r="1.4" fill="rgba(20,30,65,.15)"/><circle cx="101.6" cy="393.4" r="1" fill="rgba(20,30,65,.10)"/><circle cx="403" cy="223.1" r="0.6" fill="rgba(20,30,65,.15)"/><circle cx="86.3" cy="282.3" r="1.4" fill="rgba(20,30,65,.15)"/><circle cx="182.7" cy="63.6" r="0.6" fill="rgba(20,30,65,.10)"/><circle cx="600.7" cy="112.1" r="0.6" fill="rgba(20,30,65,.07)"/><circle cx="143.8" cy="598.1" r="0.6" fill="rgba(20,30,65,.07)"/><circle cx="559.1" cy="100.2" r="0.6" fill="rgba(0,80,70,.14)"/><circle cx="69.1" cy="290.7" r="1" fill="rgba(20,30,65,.10)"/><circle cx="20.3" cy="306.3" r="1.4" fill="rgba(20,30,65,.15)"/><circle cx="625.8" cy="297.4" r="0.6" fill="rgba(20,30,65,.10)"/><circle cx="459.3" cy="227.2" r="0.6" fill="rgba(20,30,65,.10)"/><circle cx="411.1" cy="420.3" r="1" fill="rgba(0,80,70,.14)"/><circle cx="43.6" cy="584.3" r="0.6" fill="rgba(20,30,65,.15)"/><circle cx="477.2" cy="319.1" r="1" fill="rgba(20,30,65,.07)"/><circle cx="282.7" cy="538.7" r="0.6" fill="rgba(20,30,65,.15)"/><circle cx="110.2" cy="90.4" r="1" fill="rgba(20,100,50,.12)"/><circle cx="214.2" cy="457.3" r="0.6" fill="rgba(20,30,65,.15)"/><circle cx="545.6" cy="293.5" r="1" fill="rgba(20,30,65,.10)"/><circle cx="40.3" cy="391.8" r="0.6" fill="rgba(20,30,65,.07)"/><circle cx="239.1" cy="393.3" r="0.6" fill="rgba(20,30,65,.15)"/><circle cx="371" cy="586" r="1" fill="rgba(0,100,200,.10)"/><circle cx="577.4" cy="162.5" r="1.4" fill="rgba(20,30,65,.10)"/><circle cx="515.4" cy="78.8" r="0.6" fill="rgba(20,30,65,.10)"/><circle cx="258.9" cy="503.5" r="0.6" fill="rgba(20,30,65,.15)"/><circle cx="127.7" cy="273.6" r="0.6" fill="rgba(20,30,65,.15)"/><circle cx="638.7" cy="114.7" r="0.6" fill="rgba(0,80,70,.14)"/><circle cx="605.2" cy="74.5" r="0.6" fill="rgba(20,30,65,.10)"/><circle cx="319.8" cy="619.7" r="0.6" fill="rgba(20,30,65,.10)"/><circle cx="235.5" cy="469.1" r="0.6" fill="rgba(20,30,65,.10)"/><circle cx="234.2" cy="482.3" r="0.6" fill="rgba(20,30,65,.10)"/><circle cx="519.8" cy="340.5" r="0.6" fill="rgba(20,30,65,.07)"/><circle cx="416" cy="383.5" r="1.4" fill="rgba(20,30,65,.15)"/><circle cx="32.1" cy="14.7" r="0.6" fill="rgba(20,30,65,.15)"/><circle cx="518.2" cy="56.1" r="0.6" fill="rgba(20,100,50,.12)"/><circle cx="521.4" cy="262.1" r="1.4" fill="rgba(20,30,65,.10)"/><circle cx="85.8" cy="593.6" r="0.6" fill="rgba(20,30,65,.10)"/><circle cx="521.8" cy="164.2" r="0.6" fill="rgba(0,80,70,.14)"/><circle cx="357.4" cy="239" r="0.6" fill="rgba(20,30,65,.10)"/><circle cx="528" cy="358" r="1" fill="rgba(0,100,200,.10)"/><circle cx="71.1" cy="415.4" r="1" fill="rgba(0,80,70,.14)"/><circle cx="143.5" cy="231.7" r="0.6" fill="rgba(20,30,65,.15)"/><circle cx="94.9" cy="7.8" r="0.6" fill="rgba(20,30,65,.15)"/><circle cx="365.8" cy="270" r="0.6" fill="rgba(20,30,65,.10)"/><circle cx="618.9" cy="286.9" r="1" fill="rgba(20,30,65,.07)"/><circle cx="274.8" cy="126.2" r="1" fill="rgba(20,30,65,.10)"/><circle cx="611.8" cy="358.6" r="1" fill="rgba(20,30,65,.10)"/><circle cx="157.4" cy="91.5" r="0.6" fill="rgba(20,30,65,.15)"/><circle cx="388.2" cy="39" r="1" fill="rgba(20,30,65,.07)"/><circle cx="466.5" cy="606.5" r="0.6" fill="rgba(20,30,65,.10)"/><circle cx="213.4" cy="360.7" r="0.6" fill="rgba(20,30,65,.15)"/><circle cx="374.7" cy="79.3" r="0.6" fill="rgba(20,30,65,.15)"/><circle cx="244.1" cy="525.2" r="1" fill="rgba(20,30,65,.15)"/><circle cx="374.8" cy="153.2" r="0.6" fill="rgba(20,30,65,.10)"/><circle cx="598.7" cy="312.9" r="0.6" fill="rgba(0,80,70,.14)"/></svg>